<?xml version="1.0" encoding="UTF-8"?>
<svg version="1.1" xmlns="http://www.w3.org/2000/svg" width="512" height="512">
<path d="M0 0 C155.1 0 310.2 0 470 0 C470 155.1 470 310.2 470 470 C425.78 470 381.56 470 336 470 C335.67 388.16 335.34 306.32 335 222 C303.66804687 253.41896484 303.66804687 253.41896484 271.703125 285.47265625 C258.50658038 298.69473244 245.30942644 311.91619178 232.109375 325.13476562 C225.17884506 332.07508559 218.24847154 339.0155617 211.31835938 345.95629883 C210.44972322 346.82625372 209.58108707 347.69620862 208.68612862 348.59252578 C194.6454546 362.65497251 180.6136364 376.72622414 166.58504286 390.80072112 C152.19789655 405.23455238 137.80133592 419.6589426 123.39591098 434.0745315 C114.5004865 442.97683165 105.61257126 451.88649719 96.73398802 460.80559432 C90.65275525 466.91316719 84.56243907 473.01158179 78.46476606 479.10274083 C74.94199676 482.62229363 71.4235028 486.14586966 67.91569138 489.680336 C64.70883019 492.91138795 61.49081636 496.13086371 58.26325759 499.34123688 C57.09326135 500.50910667 55.92754645 501.6812834 54.76643196 502.85798395 C53.19589273 504.44838374 51.61096282 506.02283301 50.02122879 507.59401035 C49.14179651 508.47534124 48.26236422 509.35667213 47.35628247 510.26471001 C45 512 45 512 42.79812485 511.86338162 C40.5610012 510.7892118 39.12343271 509.50706469 37.36125183 507.75566101 C36.65593323 507.0616922 35.95061462 506.36772339 35.22392273 505.65272522 C34.46062149 504.88649338 33.69732025 504.12026154 32.91088867 503.33081055 C32.09915192 502.52754333 31.28741516 501.72427612 30.45108032 500.89666748 C27.76548011 498.23450124 25.09126177 495.56123967 22.41796875 492.88671875 C20.56070599 491.03655235 18.70314285 489.18668743 16.84529114 487.33711243 C12.95170029 483.45812698 9.06516135 479.57216987 5.18188477 475.68286133 C0.68937435 471.18370164 -3.81771056 466.69952578 -8.33203107 462.22225922 C-12.67223562 457.91639491 -16.9985222 453.59680679 -21.31952477 449.27167702 C-23.16125794 447.43164271 -25.0070019 445.59561414 -26.85672951 443.76361656 C-29.43580101 441.20656088 -31.99864297 438.63427705 -34.55786133 436.05737305 C-35.33128372 435.2972139 -36.10470612 434.53705475 -36.90156555 433.75386047 C-37.59278503 433.05143219 -38.28400452 432.34900391 -38.99617004 431.62528992 C-39.6039671 431.01820537 -40.21176416 430.41112082 -40.83797932 429.78563976 C-42 428 -42 428 -41.86240554 426.20124823 C-40.64465925 423.09300999 -38.72388494 421.35167739 -36.36353207 418.99438858 C-35.62989131 418.25555552 -35.62989131 418.25555552 -34.88142952 417.50179654 C-33.23074095 415.84312895 -31.56951467 414.19543161 -29.90818787 412.54742432 C-28.71461615 411.3525451 -27.5217036 410.15700713 -26.32939678 408.96086574 C-23.04332676 405.6680681 -19.74794246 402.38473046 -16.45101035 399.10281348 C-12.90025139 395.56497783 -9.35813328 392.01850995 -5.81497192 388.47306824 C0.32757279 382.32894844 6.47559809 376.19035691 12.62735176 370.05545807 C21.52180691 361.18535652 30.40799267 352.3070087 39.29216468 343.42660913 C53.70543697 329.01990704 68.12539974 314.61992086 82.54956055 300.22412109 C96.56348559 286.2377219 110.57424745 272.24816645 124.58081055 258.25439453 C125.88849611 256.94791496 125.88849611 256.94791496 127.22259957 255.61504185 C134.0402785 248.80360097 140.85777391 241.99197642 147.67521131 235.1802938 C181.10689406 201.77692571 214.5545635 168.38960795 248 135 C166.16 134.67 84.32 134.34 0 134 C0 89.78 0 45.56 0 0 Z " fill="#FFFFFF" transform="translate(42,0)"/>
</svg>
